<?xml version="1.0" encoding="UTF-8"?>
<svg width="128pt" height="128pt" version="1.1" viewBox="0 0 128 128" xmlns="http://www.w3.org/2000/svg">
 <g>
  <path d="m106.77 21.227c-11.422-11.426-26.625-17.727-42.773-17.727s-31.352 6.3008-42.773 17.727c-11.426 11.422-17.727 26.625-17.727 42.773s6.3008 31.352 17.727 42.773c11.422 11.426 26.625 17.727 42.773 17.727s31.352-6.3008 42.773-17.727c11.426-11.422 17.727-26.625 17.727-42.773s-6.3008-31.352-17.727-42.773zm-0.69922 84.848c-11.25 11.25-26.176 17.426-42.074 17.426s-30.824-6.1992-42.074-17.426c-11.25-11.223-17.426-26.176-17.426-42.074s6.1992-30.824 17.426-42.074c11.223-11.25 26.176-17.426 42.074-17.426s30.824 6.1992 42.074 17.426c11.25 11.223 17.426 26.176 17.426 42.074s-6.1992 30.824-17.426 42.074z"/>
  <path d="m38.977 52.477c4.7266 0 8.5742-5.75 8.5742-12.852s-3.8516-12.852-8.5742-12.852c-4.7266 0-8.5742 5.75-8.5742 12.852-0.003906 7.1016 3.8477 12.852 8.5742 12.852z"/>
  <path d="m89.023 26.801c-4.7266 0-8.5742 5.75-8.5742 12.852 0 7.1016 3.8516 12.852 8.5742 12.852 4.7266 0 8.5742-5.75 8.5742-12.852 0.003906-7.1016-3.8477-12.852-8.5742-12.852z"/>
  <path d="m96.574 67.625c0 17.977-14.625 32.574-32.574 32.574s-32.574-14.625-32.574-32.574v-0.5h-1v0.5c0 18.523 15.074 33.574 33.574 33.574s33.574-15.074 33.574-33.574v-0.5h-1z" stroke-width="100"/>
 </g>
</svg>
